<svg style="background-color:#FDF6E3" xmlns="http://www.w3.org/2000/svg" width="2320" height="5400"><rect x="0" y="0" width="100%" height="100%" fill="#FDF6E3"/><path stroke="#616f77" stroke-width="23" d="M 0 100 m 40.0 0 v 50.0" stroke-linecap="square" fill="none"/><path stroke="#586E75" stroke-width="23" d="M 160 200 m 0 50.0 q 40.0 0.0 40.0 50.0 q 0.0 50.0 40.0 50.0 h 80 q 40.0 0.0 40.0 50.0 q 0.0 50.0 -40.0 50.0 h -80 h -80 q -40.0 0.0 -40.0 50.0 q 0.0 50.0 40.0 50.0 h 80" stroke-linecap="square" fill="none"/><path stroke="#2AA198" stroke-width="23" d="M 320 200 m 0 50.0 q 40.0 0.0 40.0 -50.0 q 0.0 -50.0 40.0 -50.0 h 80 q 40.0 0.0 40.0 50.0 v 100 q 0.0 50.0 40.0 50.0 h 80 q 40.0 0.0 40.0 50.0 q 0.0 50.0 -40.0 50.0 h -80 h -80 q -40.0 0.0 -40.0 50.0 q 0.0 50.0 40.0 50.0 h 80" stroke-linecap="square" fill="none"/><path stroke="#CB4B16" stroke-width="23" d="M 800 300 m 0 50.0 q 40.0 0.0 40.0 -50.0 v -100 q 0.0 -50.0 40.0 -50.0 h 80 q 40.0 0.0 40.0 50.0 v 100 q 0.0 50.0 40.0 50.0 q 40.0 0.0 40.0 50.0 q 0.0 50.0 -40.0 50.0 h -80 h -80 h -80 q -40.0 0.0 -40.0 50.0 q 0.0 50.0 40.0 50.0 h 80 h 80 h 80 h 80 h 80" stroke-linecap="square" fill="none"/><path stroke="#616f77" stroke-width="23" d="M 1240.0 500 m 40.0 50.0 v 50.0" stroke-linecap="square" fill="none"/><path stroke="#616f77" stroke-width="23" d="M 0 800 m 40.0 0 v 50.0" stroke-linecap="square" fill="none"/><path stroke="#616f77" stroke-width="23" d="M 80 800 m 40.0 0 v 50.0" stroke-linecap="square" fill="none"/><path stroke="#586E75" stroke-width="23" d="M 640 900 m 0 50.0 q 40.0 0.0 40.0 -50.0 q 0.0 -50.0 40.0 -50.0 h 80 h 80 q 40.0 0.0 40.0 50.0 q 0.0 50.0 -40.0 50.0 h -80" stroke-linecap="square" fill="none"/><path stroke="#2AA198" stroke-width="23" d="M 1040 900 m 0 50.0 q 40.0 0.0 40.0 -50.0 q 0.0 -50.0 40.0 -50.0 h 80 h 80 q 40.0 0.0 40.0 50.0 q 0.0 50.0 -40.0 50.0 h -80" stroke-linecap="square" fill="none"/><path stroke="#CB4B16" stroke-width="23" d="M 1440 900 m 0 50.0 q 40.0 0.0 40.0 50.0 q 0.0 50.0 -40.0 50.0 h -80 h -80 h -80 h -80 h -80 h -80 h -80 h -80 h -80 h -80 h -80 h -80 h -80 h -80 q -40.0 0.0 -40.0 -50.0 q 0.0 -50.0 40.0 -50.0 h 80 m 40.0 0 h 80" stroke-linecap="square" fill="none"/><path stroke="#616f77" stroke-width="23" d="M 1480.0 1000 m 40.0 50.0 v 50.0" stroke-linecap="square" fill="none"/><path stroke="#616f77" stroke-width="23" d="M 0 1300 m 40.0 0 v 50.0" stroke-linecap="square" fill="none"/><path stroke="#616f77" stroke-width="23" d="M 80 1300 m 40.0 0 v 50.0" stroke-linecap="square" fill="none"/><path stroke="#586E75" stroke-width="23" d="M 240 1500 m 40.0 0 q 0.0 50.0 40.0 50.0 h 80 q 40.0 0.0 40.0 -50.0 q 0.0 -50.0 40.0 -50.0 h 80 q 40.0 0.0 40.0 50.0 v 100 q 0.0 50.0 -40.0 50.0 h -80" stroke-linecap="square" fill="none"/><path stroke="#2AA198" stroke-width="23" d="M 640 1400 m 40.0 0 q 0.0 50.0 40.0 50.0 h 80 q 40.0 0.0 40.0 -50.0 q 0.0 -50.0 -40.0 -50.0 h -80 h -80" stroke-linecap="square" fill="none"/><path stroke="#CB4B16" stroke-width="23" d="M 800 1500 m 0 50.0 q 40.0 0.0 40.0 50.0 q 0.0 50.0 40.0 50.0 h 80 q 40.0 0.0 40.0 -50.0 v -100 m 0 -50.0 v -50.0 M 800 1700 m 80 50.0 q -40.0 0.0 -40.0 50.0 v 100 v 100 q 0.0 50.0 -40.0 50.0 h -80 h -80 q -40.0 0.0 -40.0 -50.0 v -100" stroke-linecap="square" fill="none"/><path stroke="#859900" stroke-width="23" d="M 1120 1400 m 40.0 0 q 0.0 50.0 40.0 50.0 h 80 q 40.0 0.0 40.0 -50.0 q 0.0 -50.0 -40.0 -50.0 h -80 h -80" stroke-linecap="square" fill="none"/><path stroke="#268BD2" stroke-width="23" d="M 1440 1400 m 0 50.0 q 40.0 0.0 40.0 50.0 q 0.0 50.0 -40.0 50.0 h -80 h -80 h -80 h -80 q -40.0 0.0 -40.0 -50.0 m 0 -50.0 v -50.0" stroke-linecap="square" fill="none"/><path stroke="#616f77" stroke-width="23" d="M 1400.0 2000 m 40.0 50.0 v 50.0" stroke-linecap="square" fill="none"/><path stroke="#616f77" stroke-width="23" d="M 0 2300 m 40.0 0 v 50.0" stroke-linecap="square" fill="none"/><path stroke="#616f77" stroke-width="23" d="M 80 2300 m 40.0 0 v 50.0" stroke-linecap="square" fill="none"/><path stroke="#586E75" stroke-width="23" d="M 480 2500 m 0 50.0 q 40.0 0.0 40.0 -50.0 q 0.0 -50.0 40.0 -50.0 h 80 h 80 h 80 q 40.0 0.0 40.0 50.0 q 0.0 50.0 -40.0 50.0 h -80 h -80" stroke-linecap="square" fill="none"/><path stroke="#2AA198" stroke-width="23" d="M 960 2500 m 0 50.0 q 40.0 0.0 40.0 -50.0 q 0.0 -50.0 40.0 -50.0 h 80 h 80 h 80 q 40.0 0.0 40.0 50.0 q 0.0 50.0 -40.0 50.0 h -80 h -80" stroke-linecap="square" fill="none"/><path stroke="#CB4B16" stroke-width="23" d="M 1440 2500 m 0 50.0 q 40.0 0.0 40.0 -50.0 v -100 q 0.0 -50.0 -40.0 -50.0 h -80 h -80 h -80 h -80 h -80 h -80 h -80 h -80 h -80 h -80 h -80 h -80 h -80 q -40.0 0.0 -40.0 50.0 v 100 m 0 50.0 v 50.0 M 1440 2700 m 80 50.0 q -40.0 0.0 -40.0 50.0 v 100 v 100 q 0.0 50.0 -40.0 50.0 h -80 q -40.0 0.0 -40.0 -50.0 v -100" stroke-linecap="square" fill="none"/><path stroke="#859900" stroke-width="23" d="M 1600 2300 m 0 50.0 q 40.0 0.0 40.0 50.0 v 100 v 100 q 0.0 50.0 -40.0 50.0 h -80 h -80 h -80 h -80 h -80 h -80 h -80 h -80 h -80 h -80 h -80 h -80 h -80 h -80 h -80 h -80 q -40.0 0.0 -40.0 -50.0 v -100 m 0 -50.0 v -50.0 M 1600 2700 m 80 50.0 q -40.0 0.0 -40.0 50.0 v 100 v 100 v 100 q 0.0 50.0 -40.0 50.0 h -80 h -80 h -80" stroke-linecap="square" fill="none"/><path stroke="#616f77" stroke-width="23" d="M 1640.0 3100 m 40.0 50.0 v 50.0" stroke-linecap="square" fill="none"/><path stroke="#616f77" stroke-width="23" d="M 0 3400 m 40.0 0 v 50.0" stroke-linecap="square" fill="none"/><path stroke="#616f77" stroke-width="23" d="M 80 3400 m 40.0 0 v 50.0" stroke-linecap="square" fill="none"/><path stroke="#586E75" stroke-width="23" d="M 480 3600 m 0 50.0 q 40.0 0.0 40.0 50.0 q 0.0 50.0 40.0 50.0 h 80 q 40.0 0.0 40.0 -50.0 v -100 q 0.0 -50.0 -40.0 -50.0 h -80 h -80 q -40.0 0.0 -40.0 -50.0 q 0.0 -50.0 -40.0 -50.0 h -80" stroke-linecap="square" fill="none"/><path stroke="#2AA198" stroke-width="23" d="M 880 3600 m 0 50.0 q 40.0 0.0 40.0 50.0 q 0.0 50.0 40.0 50.0 h 80 q 40.0 0.0 40.0 -50.0 v -100 q 0.0 -50.0 -40.0 -50.0 h -80 h -80 q -40.0 0.0 -40.0 -50.0 q 0.0 -50.0 -40.0 -50.0 h -80" stroke-linecap="square" fill="none"/><path stroke="#CB4B16" stroke-width="23" d="M 1440 3600 m 0 50.0 q 40.0 0.0 40.0 50.0 v 100 q 0.0 50.0 -40.0 50.0 h -80 h -80 h -80 h -80 h -80 h -80 h -80 h -80 q -40.0 0.0 -40.0 -50.0 v -100 m 0 -50.0 v -50.0 M 1440 4100 m 80 50.0 q -40.0 0.0 -40.0 50.0 v 100 q 0.0 50.0 -40.0 50.0 h -80 q -40.0 0.0 -40.0 -50.0 v -100" stroke-linecap="square" fill="none"/><path stroke="#859900" stroke-width="23" d="M 1120 3600 m 0 50.0 v 50.0 q 0.0 50.0 40.0 50.0 h 80 q 40.0 0.0 40.0 -50.0 v -100 q 0.0 -50.0 40.0 -50.0 h 80 h 80 q 40.0 0.0 40.0 50.0 v 100 v 100 q 0.0 50.0 40.0 50.0 h 80 q 40.0 0.0 40.0 50.0 m 0 50.0 v 50.0 M 1680 3900 m 0 50.0 v 50.0 q 0.0 50.0 -40.0 50.0 h -80 q -40.0 0.0 -40.0 -50.0 q 0.0 -50.0 -40.0 -50.0 h -80 q -40.0 0.0 -40.0 50.0 q 0.0 50.0 -40.0 50.0 h -80 q -40.0 0.0 -40.0 -50.0 q 0.0 -50.0 -40.0 -50.0 h -80 q -40.0 0.0 -40.0 50.0 v 100 v 100 v 100 q 0.0 50.0 -40.0 50.0 h -80 q -40.0 0.0 -40.0 -50.0 v -100 v -100 v -100 q 0.0 -50.0 -40.0 -50.0 h -80 q -40.0 0.0 -40.0 50.0 v 100 v 100 v 100 q 0.0 50.0 -40.0 50.0 h -80 q -40.0 0.0 -40.0 -50.0 v -100 v -100 v -100 v -100 q 0.0 -50.0 -40.0 -50.0 h -80 q -40.0 0.0 -40.0 50.0 v 100 v 100 v 100 v 100 v 100" stroke-linecap="square" fill="none"/><path stroke="#616f77" stroke-width="23" d="M 1640.0 4300 m 40.0 50.0 v 50.0" stroke-linecap="square" fill="none"/><path stroke="#616f77" stroke-width="23" d="M 0 4600 m 40.0 0 v 50.0" stroke-linecap="square" fill="none"/><path stroke="#586E75" stroke-width="23" d="M 640 4600 m 40.0 0 q 0.0 50.0 -40.0 50.0 h -80 h -80 h -80 h -80 q -40.0 0.0 -40.0 50.0 v 100 q 0.0 50.0 40.0 50.0 h 80 q 40.0 0.0 40.0 -50.0 m 0 -50.0 v -50.0 M 640 4700 m 80 50.0 q -40.0 0.0 -40.0 50.0 v 100 q 0.0 50.0 -40.0 50.0 h -80 q -40.0 0.0 -40.0 50.0 v 100 q 0.0 50.0 -40.0 50.0 h -80 h -80" stroke-linecap="square" fill="none"/><path stroke="#2AA198" stroke-width="23" d="M 1280 4600 m 40.0 0 q 0.0 50.0 -40.0 50.0 h -80 h -80 h -80 h -80 q -40.0 0.0 -40.0 50.0 v 100 q 0.0 50.0 40.0 50.0 h 80 q 40.0 0.0 40.0 -50.0 m 0 -50.0 v -50.0 M 1280 4700 m 80 50.0 q -40.0 0.0 -40.0 50.0 v 100 q 0.0 50.0 -40.0 50.0 h -80 q -40.0 0.0 -40.0 50.0 v 100 q 0.0 50.0 -40.0 50.0 h -80 h -80" stroke-linecap="square" fill="none"/><path stroke="#616f77" stroke-width="23" d="M 1400.0 5100 m 40.0 50.0 v 50.0" stroke-linecap="square" fill="none"/></svg>