<svg style="background-color:#002b36" xmlns="http://www.w3.org/2000/svg" width="1740" height="5100"><rect x="0" y="0" width="100%" height="100%" fill="#002b36"/><path stroke="#999999" stroke-width="20" d="M 0 100 m 30.0 0 v 50.0" stroke-linecap="round" fill="none"/><path stroke="#93a1a1" stroke-width="20" d="M 60 300 m 30.0 0 v 9.999999999999998 q 0.0 40.0 24.0 40.0 h 5.999999999999998 h 60 h 60 h 60 h 60 h 60 h 5.999999999999998 q 24.0 0.0 24.0 40.0 v 9.999999999999998 v 9.999999999999998 q 0.0 40.0 24.0 40.0 h 5.999999999999998 h 60 h 5.999999999999998 q 24.0 0.0 24.0 -40.0 v -9.999999999999998 v -100 v -100 v -9.999999999999998 q 0.0 -40.0 24.0 -40.0 h 5.999999999999998 h 60" stroke-linecap="round" fill="none"/><path stroke="#b58900" stroke-width="20" d="M 120 200 m 30.0 0 v 9.999999999999998 q 0.0 40.0 24.0 40.0 h 5.999999999999998 h 60 h 5.999999999999998 q 24.0 0.0 24.0 -40.0 v -9.999999999999998 v -9.999999999999998 q 0.0 -40.0 -24.0 -40.0 h -5.999999999999998 h -60 h -60" stroke-linecap="round" fill="none"/><path stroke="#cb4b16" stroke-width="20" d="M 300 200 m 30.0 0 v 9.999999999999998 q 0.0 40.0 24.0 40.0 h 5.999999999999998 h 60 h 60 h 5.999999999999998 q 24.0 0.0 24.0 -40.0 v -9.999999999999998 v -9.999999999999998 q 0.0 -40.0 -24.0 -40.0 h -5.999999999999998 h -60 h -60 h -60" stroke-linecap="round" fill="none"/><path stroke="#999999" stroke-width="20" d="M 690.0 400 m 30.0 50.0 v 50.0" stroke-linecap="round" fill="none"/><path stroke="#999999" stroke-width="20" d="M 0 700 m 30.0 0 v 50.0" stroke-linecap="round" fill="none"/><path stroke="#999999" stroke-width="20" d="M 60 700 m 30.0 0 v 50.0" stroke-linecap="round" fill="none"/><path stroke="#93a1a1" stroke-width="20" d="M 540 800 m 0 50.0 h 5.999999999999998 q 24.0 0.0 24.0 40.0 v 9.999999999999998 v 9.999999999999998 q 0.0 40.0 -24.0 40.0 h -5.999999999999998 h -60 h -60 h -60 h -60 h -60 h -5.999999999999998 q -24.0 0.0 -24.0 40.0 v 9.999999999999998 v 9.999999999999998 q 0.0 40.0 24.0 40.0 h 5.999999999999998 h 60 h 60 h 60" stroke-linecap="round" fill="none"/><path stroke="#b58900" stroke-width="20" d="M 660 800 m 0 50.0 h 5.999999999999998 q 24.0 0.0 24.0 40.0 v 9.999999999999998 v 9.999999999999998 q 0.0 40.0 24.0 40.0 h 5.999999999999998 h 60 h 60 h 60 h 60 h 60 h 5.999999999999998 q 24.0 0.0 24.0 40.0 v 9.999999999999998 v 9.999999999999998 q 0.0 40.0 -24.0 40.0 h -5.999999999999998 h -60 h -60 h -60" stroke-linecap="round" fill="none"/><path stroke="#cb4b16" stroke-width="20" d="M 780 800 m 0 50.0 h 5.999999999999998 q 24.0 0.0 24.0 -40.0 v -9.999999999999998 v -9.999999999999998 q 0.0 -40.0 -24.0 -40.0 h -5.999999999999998 h -60 h -60 h -60 h -60 h -60 h -60 h -60 h -60 h -5.999999999999998 q -24.0 0.0 -24.0 40.0 v 9.999999999999998 v 9.999999999999998 q 0.0 40.0 24.0 40.0 h 5.999999999999998 h 60 m 30.0 0 h 60" stroke-linecap="round" fill="none"/><path stroke="#999999" stroke-width="20" d="M 1050.0 1000 m 30.0 50.0 v 50.0" stroke-linecap="round" fill="none"/><path stroke="#999999" stroke-width="20" d="M 0 1300 m 30.0 0 v 50.0" stroke-linecap="round" fill="none"/><path stroke="#999999" stroke-width="20" d="M 60 1300 m 30.0 0 v 50.0" stroke-linecap="round" fill="none"/><path stroke="#93a1a1" stroke-width="20" d="M 300 1500 m 30.0 0 v 9.999999999999998 q 0.0 40.0 24.0 40.0 h 5.999999999999998 h 60 h 5.999999999999998 q 24.0 0.0 24.0 -40.0 v -9.999999999999998 v -9.999999999999998 q 0.0 -40.0 -24.0 -40.0 h -5.999999999999998 h -60 h -5.999999999999998 q -24.0 0.0 -24.0 -40.0 v -9.999999999999998 v -9.999999999999998 q 0.0 -40.0 -24.0 -40.0 h -5.999999999999998 h -60" stroke-linecap="round" fill="none"/><path stroke="#b58900" stroke-width="20" d="M 660 1500 m 30.0 0 v 9.999999999999998 q 0.0 40.0 24.0 40.0 h 5.999999999999998 h 60 h 60 h 5.999999999999998 q 24.0 0.0 24.0 -40.0 v -9.999999999999998 m 0 -50.0 v -50.0 M 660 1600 m 60 50.0 h -5.999999999999998 q -24.0 0.0 -24.0 40.0 v 9.999999999999998 v 100 v 9.999999999999998 q 0.0 40.0 -24.0 40.0 h -5.999999999999998 h -60 h -5.999999999999998 q -24.0 0.0 -24.0 -40.0 v -9.999999999999998 v -100 v -9.999999999999998 q 0.0 -40.0 -24.0 -40.0 h -5.999999999999998 h -60 h -5.999999999999998 q -24.0 0.0 -24.0 40.0 v 9.999999999999998 v 100 v 100 v 9.999999999999998 q 0.0 40.0 -24.0 40.0 h -5.999999999999998 h -60 h -5.999999999999998 q -24.0 0.0 -24.0 -40.0 v -9.999999999999998 v -100" stroke-linecap="round" fill="none"/><path stroke="#cb4b16" stroke-width="20" d="M 720 1400 m 30.0 0 v 9.999999999999998 q 0.0 40.0 -24.0 40.0 h -5.999999999999998 h -60 h -5.999999999999998 q -24.0 0.0 -24.0 -40.0 v -9.999999999999998 v -9.999999999999998 q 0.0 -40.0 -24.0 -40.0 h -5.999999999999998 h -60 h -5.999999999999998 q -24.0 0.0 -24.0 40.0 v 9.999999999999998 v 100 v 9.999999999999998 q 0.0 40.0 24.0 40.0 h 5.999999999999998 h 60" stroke-linecap="round" fill="none"/><path stroke="#6c71c4" stroke-width="20" d="M 1080 1400 m 30.0 0 v 9.999999999999998 q 0.0 40.0 -24.0 40.0 h -5.999999999999998 h -60 h -5.999999999999998 q -24.0 0.0 -24.0 -40.0 v -9.999999999999998 v -9.999999999999998 q 0.0 -40.0 24.0 -40.0 h 5.999999999999998 h 60 h 60" stroke-linecap="round" fill="none"/><path stroke="#268bd2" stroke-width="20" d="M 1200 1400 m 0 50.0 h 5.999999999999998 q 24.0 0.0 24.0 40.0 v 9.999999999999998 v 9.999999999999998 q 0.0 40.0 -24.0 40.0 h -5.999999999999998 h -60 h -60 h -60 h -60 h -5.999999999999998 q -24.0 0.0 -24.0 -40.0 v -9.999999999999998 m 0 -50.0 v -50.0" stroke-linecap="round" fill="none"/><path stroke="#999999" stroke-width="20" d="M 1170.0 1900 m 30.0 50.0 v 50.0" stroke-linecap="round" fill="none"/><path stroke="#999999" stroke-width="20" d="M 0 2200 m 30.0 0 v 50.0" stroke-linecap="round" fill="none"/><path stroke="#999999" stroke-width="20" d="M 60 2200 m 30.0 0 v 50.0" stroke-linecap="round" fill="none"/><path stroke="#93a1a1" stroke-width="20" d="M 240 2200 m 30.0 0 v 9.999999999999998 q 0.0 40.0 24.0 40.0 h 5.999999999999998 h 60 h 5.999999999999998 q 24.0 0.0 24.0 40.0 v 9.999999999999998 v 9.999999999999998 q 0.0 40.0 -24.0 40.0 h -5.999999999999998 h -60 m -30.0 0 h -60 M 240 2400 m 60 50.0 h -5.999999999999998 q -24.0 0.0 -24.0 40.0 v 9.999999999999998 v 100 v 9.999999999999998 q 0.0 40.0 24.0 40.0 h 5.999999999999998 h 60 h 5.999999999999998 q 24.0 0.0 24.0 40.0 v 9.999999999999998 v 100 v 9.999999999999998 q 0.0 40.0 24.0 40.0 h 5.999999999999998 h 60 h 60 h 60 h 60" stroke-linecap="round" fill="none"/><path stroke="#b58900" stroke-width="20" d="M 540 2400 m 0 50.0 h 5.999999999999998 q 24.0 0.0 24.0 -40.0 v -9.999999999999998 v -9.999999999999998 q 0.0 -40.0 24.0 -40.0 h 5.999999999999998 h 60 h 5.999999999999998 q 24.0 0.0 24.0 -40.0 v -9.999999999999998 v -9.999999999999998 q 0.0 -40.0 -24.0 -40.0 h -5.999999999999998 h -60 h -60" stroke-linecap="round" fill="none"/><path stroke="#cb4b16" stroke-width="20" d="M 720 2400 m 0 50.0 h 5.999999999999998 q 24.0 0.0 24.0 -40.0 v -9.999999999999998 v -9.999999999999998 q 0.0 -40.0 24.0 -40.0 h 5.999999999999998 h 60 h 5.999999999999998 q 24.0 0.0 24.0 -40.0 v -9.999999999999998 v -9.999999999999998 q 0.0 -40.0 -24.0 -40.0 h -5.999999999999998 h -60 h -60" stroke-linecap="round" fill="none"/><path stroke="#6c71c4" stroke-width="20" d="M 840 2400 m 0 50.0 h 5.999999999999998 q 24.0 0.0 24.0 40.0 v 9.999999999999998 v 9.999999999999998 q 0.0 40.0 -24.0 40.0 h -5.999999999999998 h -60 h -60 h -60 h -60 h -60 h -60 h -5.999999999999998 q -24.0 0.0 -24.0 -40.0 v -9.999999999999998 m 0 -50.0 v -50.0 M 840 2600 m 30.0 100 v -9.999999999999998 q 0.0 -40.0 24.0 -40.0 h 5.999999999999998 h 60 h 5.999999999999998 q 24.0 0.0 24.0 40.0 v 9.999999999999998 v 100 v 9.999999999999998 q 0.0 40.0 -24.0 40.0 h -5.999999999999998 h -60 h -60 h -60 h -5.999999999999998 q -24.0 0.0 -24.0 -40.0 v -9.999999999999998 v -100" stroke-linecap="round" fill="none"/><path stroke="#999999" stroke-width="20" d="M 990.0 2800 m 30.0 50.0 v 50.0" stroke-linecap="round" fill="none"/><path stroke="#999999" stroke-width="20" d="M 0 3100 m 30.0 0 v 50.0" stroke-linecap="round" fill="none"/><path stroke="#999999" stroke-width="20" d="M 60 3100 m 30.0 0 v 50.0" stroke-linecap="round" fill="none"/><path stroke="#93a1a1" stroke-width="20" d="M 420 3300 m 0 50.0 h 5.999999999999998 q 24.0 0.0 24.0 -40.0 v -9.999999999999998 v -9.999999999999998 q 0.0 -40.0 -24.0 -40.0 h -5.999999999999998 h -60 h -5.999999999999998 q -24.0 0.0 -24.0 -40.0 v -9.999999999999998 v -9.999999999999998 q 0.0 -40.0 24.0 -40.0 h 5.999999999999998 h 60 h 60" stroke-linecap="round" fill="none"/><path stroke="#b58900" stroke-width="20" d="M 600 3300 m 0 50.0 h 5.999999999999998 q 24.0 0.0 24.0 -40.0 v -9.999999999999998 v -9.999999999999998 q 0.0 -40.0 24.0 -40.0 h 5.999999999999998 h 60 h 5.999999999999998 q 24.0 0.0 24.0 -40.0 v -9.999999999999998 v -9.999999999999998 q 0.0 -40.0 -24.0 -40.0 h -5.999999999999998 h -60 h -60" stroke-linecap="round" fill="none"/><path stroke="#cb4b16" stroke-width="20" d="M 1020 3300 m 0 50.0 h 5.999999999999998 q 24.0 0.0 24.0 -40.0 v -9.999999999999998 v -100 v -9.999999999999998 q 0.0 -40.0 -24.0 -40.0 h -5.999999999999998 h -60 h -5.999999999999998 q -24.0 0.0 -24.0 40.0 v 9.999999999999998 v 9.999999999999998 q 0.0 40.0 -24.0 40.0 h -5.999999999999998 h -60 h -5.999999999999998 q -24.0 0.0 -24.0 40.0 v 9.999999999999998 v 100 v 9.999999999999998 q 0.0 40.0 -24.0 40.0 h -5.999999999999998 h -60 h -60 h -60 h -60 h -5.999999999999998 q -24.0 0.0 -24.0 -40.0 v -9.999999999999998 m 0 -50.0 v -50.0 M 1020 3500 m 60 50.0 h -5.999999999999998 q -24.0 0.0 -24.0 40.0 v 9.999999999999998 v 100 v 9.999999999999998 q 0.0 40.0 -24.0 40.0 h -5.999999999999998 h -60 h -5.999999999999998 q -24.0 0.0 -24.0 -40.0 v -9.999999999999998 v -100" stroke-linecap="round" fill="none"/><path stroke="#6c71c4" stroke-width="20" d="M 900 3300 m 0 50.0 v 50.0 v 100 v 9.999999999999998 q 0.0 40.0 -24.0 40.0 h -5.999999999999998 h -60 h -5.999999999999998 q -24.0 0.0 -24.0 40.0 v 9.999999999999998 v 100 v 100 v 9.999999999999998 q 0.0 40.0 24.0 40.0 h 5.999999999999998 h 60 h 60 h 60 h 60 h 60 h 5.999999999999998 q 24.0 0.0 24.0 -40.0 v -9.999999999999998 v -100 v -100 v -100 v -9.999999999999998 q 0.0 -40.0 24.0 -40.0 h 5.999999999999998 h 60 h 5.999999999999998 q 24.0 0.0 24.0 40.0 v 9.999999999999998 v 100 v 100 m 0 50.0 v 50.0 M 1260 3700 m 0 50.0 v 50.0 v 100 v 9.999999999999998 q 0.0 40.0 -24.0 40.0 h -5.999999999999998 h -60 h -60 h -60 h -60 h -60 h -60 h -60 h -60 h -60 h -5.999999999999998 q -24.0 0.0 -24.0 -40.0 v -9.999999999999998 v -100 v -100 v -100 v -9.999999999999998 q 0.0 -40.0 -24.0 -40.0 h -5.999999999999998 h -60 h -60 h -60 h -60 h -5.999999999999998 q -24.0 0.0 -24.0 -40.0 v -9.999999999999998 v -9.999999999999998 q 0.0 -40.0 -24.0 -40.0 h -5.999999999999998 h -60 h -5.999999999999998 q -24.0 0.0 -24.0 40.0 v 9.999999999999998 v 100 v 9.999999999999998 q 0.0 40.0 24.0 40.0 h 5.999999999999998 h 60 h 60 h 60 h 60 h 5.999999999999998 q 24.0 0.0 24.0 40.0 v 9.999999999999998 v 9.999999999999998 q 0.0 40.0 -24.0 40.0 h -5.999999999999998 h -60 h -60 h -60 h -60 h -5.999999999999998 q -24.0 0.0 -24.0 40.0 v 9.999999999999998 v 9.999999999999998 q 0.0 40.0 24.0 40.0 h 5.999999999999998 h 60 h 60 h 60 h 60 h 5.999999999999998 q 24.0 0.0 24.0 40.0 v 9.999999999999998 v 100" stroke-linecap="round" fill="none"/><path stroke="#999999" stroke-width="20" d="M 1290.0 3900 m 30.0 50.0 v 50.0" stroke-linecap="round" fill="none"/><path stroke="#999999" stroke-width="20" d="M 0 4200 m 30.0 0 v 50.0" stroke-linecap="round" fill="none"/><path stroke="#93a1a1" stroke-width="20" d="M 120 4200 m 30.0 0 v 9.999999999999998 q 0.0 40.0 24.0 40.0 h 5.999999999999998 h 60 h 5.999999999999998 q 24.0 0.0 24.0 40.0 v 9.999999999999998 v 9.999999999999998 q 0.0 40.0 -24.0 40.0 h -5.999999999999998 h -60 m -30.0 0 h -60 M 120 4400 m 30.0 100 v -9.999999999999998 q 0.0 -40.0 24.0 -40.0 h 5.999999999999998 h 60 h 5.999999999999998 q 24.0 0.0 24.0 40.0 v 9.999999999999998 v 100 v 9.999999999999998 q 0.0 40.0 -24.0 40.0 h -5.999999999999998 h -60 h -5.999999999999998 q -24.0 0.0 -24.0 40.0 v 9.999999999999998 v 100 v 9.999999999999998 q 0.0 40.0 24.0 40.0 h 5.999999999999998 h 60" stroke-linecap="round" fill="none"/><path stroke="#b58900" stroke-width="20" d="M 360 4200 m 30.0 0 v 9.999999999999998 q 0.0 40.0 24.0 40.0 h 5.999999999999998 h 60 h 5.999999999999998 q 24.0 0.0 24.0 40.0 v 9.999999999999998 v 9.999999999999998 q 0.0 40.0 -24.0 40.0 h -5.999999999999998 h -60 m -30.0 0 h -60 M 360 4400 m 30.0 100 v -9.999999999999998 q 0.0 -40.0 24.0 -40.0 h 5.999999999999998 h 60 h 5.999999999999998 q 24.0 0.0 24.0 40.0 v 9.999999999999998 v 100 v 9.999999999999998 q 0.0 40.0 -24.0 40.0 h -5.999999999999998 h -60 h -5.999999999999998 q -24.0 0.0 -24.0 40.0 v 9.999999999999998 v 100 v 9.999999999999998 q 0.0 40.0 24.0 40.0 h 5.999999999999998 h 60" stroke-linecap="round" fill="none"/><path stroke="#999999" stroke-width="20" d="M 570.0 4800 m 30.0 50.0 v 50.0" stroke-linecap="round" fill="none"/><line stroke="#e1e1e1" stroke-opacity="0.05" stroke-width="5" x1="0" y1="0" x2="1500" y2="0"/><line stroke="#e1e1e1" stroke-opacity="0.05" stroke-width="5" x1="0" y1="100" x2="1500" y2="100"/><line stroke="#e1e1e1" stroke-opacity="0.05" stroke-width="5" x1="0" y1="200" x2="1500" y2="200"/><line stroke="#e1e1e1" stroke-opacity="0.05" stroke-width="5" x1="0" y1="300" x2="1500" y2="300"/><line stroke="#e1e1e1" stroke-opacity="0.05" stroke-width="5" x1="0" y1="400" x2="1500" y2="400"/><line stroke="#e1e1e1" stroke-opacity="0.05" stroke-width="5" x1="0" y1="500" x2="1500" y2="500"/><line stroke="#e1e1e1" stroke-opacity="0.05" stroke-width="5" x1="0" y1="700" x2="1500" y2="700"/><line stroke="#e1e1e1" stroke-opacity="0.05" stroke-width="5" x1="0" y1="800" x2="1500" y2="800"/><line stroke="#e1e1e1" stroke-opacity="0.05" stroke-width="5" x1="0" y1="900" x2="1500" y2="900"/><line stroke="#e1e1e1" stroke-opacity="0.05" stroke-width="5" x1="0" y1="1000" x2="1500" y2="1000"/><line stroke="#e1e1e1" stroke-opacity="0.05" stroke-width="5" x1="0" y1="1100" x2="1500" y2="1100"/><line stroke="#e1e1e1" stroke-opacity="0.05" stroke-width="5" x1="0" y1="1300" x2="1500" y2="1300"/><line stroke="#e1e1e1" stroke-opacity="0.05" stroke-width="5" x1="0" y1="1400" x2="1500" y2="1400"/><line stroke="#e1e1e1" stroke-opacity="0.05" stroke-width="5" x1="0" y1="1500" x2="1500" y2="1500"/><line stroke="#e1e1e1" stroke-opacity="0.05" stroke-width="5" x1="0" y1="1600" x2="1500" y2="1600"/><line stroke="#e1e1e1" stroke-opacity="0.05" stroke-width="5" x1="0" y1="1700" x2="1500" y2="1700"/><line stroke="#e1e1e1" stroke-opacity="0.05" stroke-width="5" x1="0" y1="1800" x2="1500" y2="1800"/><line stroke="#e1e1e1" stroke-opacity="0.05" stroke-width="5" x1="0" y1="1900" x2="1500" y2="1900"/><line stroke="#e1e1e1" stroke-opacity="0.05" stroke-width="5" x1="0" y1="2000" x2="1500" y2="2000"/><line stroke="#e1e1e1" stroke-opacity="0.05" stroke-width="5" x1="0" y1="2200" x2="1500" y2="2200"/><line stroke="#e1e1e1" stroke-opacity="0.05" stroke-width="5" x1="0" y1="2300" x2="1500" y2="2300"/><line stroke="#e1e1e1" stroke-opacity="0.05" stroke-width="5" x1="0" y1="2400" x2="1500" y2="2400"/><line stroke="#e1e1e1" stroke-opacity="0.05" stroke-width="5" x1="0" y1="2500" x2="1500" y2="2500"/><line stroke="#e1e1e1" stroke-opacity="0.05" stroke-width="5" x1="0" y1="2600" x2="1500" y2="2600"/><line stroke="#e1e1e1" stroke-opacity="0.05" stroke-width="5" x1="0" y1="2700" x2="1500" y2="2700"/><line stroke="#e1e1e1" stroke-opacity="0.05" stroke-width="5" x1="0" y1="2800" x2="1500" y2="2800"/><line stroke="#e1e1e1" stroke-opacity="0.05" stroke-width="5" x1="0" y1="2900" x2="1500" y2="2900"/><line stroke="#e1e1e1" stroke-opacity="0.05" stroke-width="5" x1="0" y1="3100" x2="1500" y2="3100"/><line stroke="#e1e1e1" stroke-opacity="0.05" stroke-width="5" x1="0" y1="3200" x2="1500" y2="3200"/><line stroke="#e1e1e1" stroke-opacity="0.05" stroke-width="5" x1="0" y1="3300" x2="1500" y2="3300"/><line stroke="#e1e1e1" stroke-opacity="0.05" stroke-width="5" x1="0" y1="3400" x2="1500" y2="3400"/><line stroke="#e1e1e1" stroke-opacity="0.05" stroke-width="5" x1="0" y1="3500" x2="1500" y2="3500"/><line stroke="#e1e1e1" stroke-opacity="0.05" stroke-width="5" x1="0" y1="3600" x2="1500" y2="3600"/><line stroke="#e1e1e1" stroke-opacity="0.05" stroke-width="5" x1="0" y1="3700" x2="1500" y2="3700"/><line stroke="#e1e1e1" stroke-opacity="0.05" stroke-width="5" x1="0" y1="3800" x2="1500" y2="3800"/><line stroke="#e1e1e1" stroke-opacity="0.05" stroke-width="5" x1="0" y1="3900" x2="1500" y2="3900"/><line stroke="#e1e1e1" stroke-opacity="0.05" stroke-width="5" x1="0" y1="4000" x2="1500" y2="4000"/><line stroke="#e1e1e1" stroke-opacity="0.05" stroke-width="5" x1="0" y1="4200" x2="1500" y2="4200"/><line stroke="#e1e1e1" stroke-opacity="0.05" stroke-width="5" x1="0" y1="4300" x2="1500" y2="4300"/><line stroke="#e1e1e1" stroke-opacity="0.05" stroke-width="5" x1="0" y1="4400" x2="1500" y2="4400"/><line stroke="#e1e1e1" stroke-opacity="0.05" stroke-width="5" x1="0" y1="4500" x2="1500" y2="4500"/><line stroke="#e1e1e1" stroke-opacity="0.05" stroke-width="5" x1="0" y1="4600" x2="1500" y2="4600"/><line stroke="#e1e1e1" stroke-opacity="0.05" stroke-width="5" x1="0" y1="4700" x2="1500" y2="4700"/><line stroke="#e1e1e1" stroke-opacity="0.05" stroke-width="5" x1="0" y1="4800" x2="1500" y2="4800"/><line stroke="#e1e1e1" stroke-opacity="0.05" stroke-width="5" x1="0" y1="4900" x2="1500" y2="4900"/></svg>