<svg style="background-color:#2d2725" xmlns="http://www.w3.org/2000/svg" width="2160" height="4500"><rect x="0" y="0" width="100%" height="100%" fill="#2d2725"/><path stroke="#407ee7" stroke-width="20" d="M 0 100 m 40.0 0 v 50.0" stroke-linecap="round" fill="none"/><path stroke="#f22c40" stroke-width="20" d="M 80 300 m 40.0 0 q 0.0 50.0 40.0 50.0 h 80 q 40.0 0.0 40.0 50.0 q 0.0 50.0 40.0 50.0 h 80 h 80 h 80 q 40.0 0.0 40.0 -50.0 q 0.0 -50.0 40.0 -50.0 h 80" stroke-linecap="round" fill="none"/><path stroke="#c38418" stroke-width="20" d="M 160 200 m 40.0 0 q 0.0 50.0 40.0 50.0 h 80 q 40.0 0.0 40.0 -50.0 q 0.0 -50.0 40.0 -50.0 h 80 q 40.0 0.0 40.0 50.0 v 100 q 0.0 50.0 -40.0 50.0 h -80" stroke-linecap="round" fill="none"/><path stroke="#df5320" stroke-width="20" d="M 560 200 m 40.0 0 q 0.0 50.0 40.0 50.0 h 80 q 40.0 0.0 40.0 -50.0 q 0.0 -50.0 40.0 -50.0 h 80 h 80 q 40.0 0.0 40.0 50.0 v 100 q 0.0 50.0 -40.0 50.0 h -80" stroke-linecap="round" fill="none"/><path stroke="#407ee7" stroke-width="20" d="M 1000.0 400 m 40.0 50.0 v 50.0" stroke-linecap="round" fill="none"/><path stroke="#407ee7" stroke-width="20" d="M 0 700 m 40.0 0 v 50.0" stroke-linecap="round" fill="none"/><path stroke="#407ee7" stroke-width="20" d="M 80 700 m 40.0 0 v 50.0" stroke-linecap="round" fill="none"/><path stroke="#f22c40" stroke-width="20" d="M 480 800 m 40.0 0 q 0.0 50.0 40.0 50.0 h 80 q 40.0 0.0 40.0 -50.0 q 0.0 -50.0 -40.0 -50.0 h -80 h -80" stroke-linecap="round" fill="none"/><path stroke="#c38418" stroke-width="20" d="M 720 800 m 40.0 0 q 0.0 50.0 40.0 50.0 h 80 q 40.0 0.0 40.0 -50.0 q 0.0 -50.0 -40.0 -50.0 h -80 h -80" stroke-linecap="round" fill="none"/><path stroke="#df5320" stroke-width="20" d="M 1120 800 m 40.0 0 q 0.0 50.0 -40.0 50.0 h -80 q -40.0 0.0 -40.0 50.0 q 0.0 50.0 -40.0 50.0 h -80 h -80 h -80 h -80 h -80 h -80 q -40.0 0.0 -40.0 -50.0 q 0.0 -50.0 -40.0 -50.0 h -80 m -40.0 0 h -80" stroke-linecap="round" fill="none"/><path stroke="#407ee7" stroke-width="20" d="M 1080.0 900 m 40.0 50.0 v 50.0" stroke-linecap="round" fill="none"/><path stroke="#407ee7" stroke-width="20" d="M 0 1200 m 40.0 0 v 50.0" stroke-linecap="round" fill="none"/><path stroke="#407ee7" stroke-width="20" d="M 80 1200 m 40.0 0 v 50.0" stroke-linecap="round" fill="none"/><path stroke="#f22c40" stroke-width="20" d="M 320 1300 m 40.0 0 q 0.0 50.0 40.0 50.0 h 80 q 40.0 0.0 40.0 -50.0 q 0.0 -50.0 -40.0 -50.0 h -80 h -80" stroke-linecap="round" fill="none"/><path stroke="#c38418" stroke-width="20" d="M 320 1400 m 40.0 0 q 0.0 50.0 40.0 50.0 h 80 q 40.0 0.0 40.0 50.0 q 0.0 50.0 -40.0 50.0 h -80 h -80 q -40.0 0.0 -40.0 50.0 q 0.0 50.0 40.0 50.0 h 80" stroke-linecap="round" fill="none"/><path stroke="#df5320" stroke-width="20" d="M 720 1400 m 40.0 0 q 0.0 50.0 -40.0 50.0 h -80 q -40.0 0.0 -40.0 -50.0 v -100 q 0.0 -50.0 40.0 -50.0 h 80 h 80 q 40.0 0.0 40.0 50.0 m 0 50.0 v 50.0 M 720 1500 m 80 50.0 q -40.0 0.0 -40.0 50.0 v 100 q 0.0 50.0 40.0 50.0 h 80 q 40.0 0.0 40.0 -50.0 v -100 v -100 q 0.0 -50.0 40.0 -50.0 h 80 q 40.0 0.0 40.0 50.0 v 100" stroke-linecap="round" fill="none"/><path stroke="#00ad9c" stroke-width="20" d="M 960 1300 m 40.0 0 q 0.0 50.0 40.0 50.0 h 80 q 40.0 0.0 40.0 50.0 v 100 q 0.0 50.0 40.0 50.0 h 80 q 40.0 0.0 40.0 50.0 q 0.0 50.0 -40.0 50.0 h -80" stroke-linecap="round" fill="none"/><path stroke="#7b9726" stroke-width="20" d="M 1280 1300 m 0 50.0 q 40.0 0.0 40.0 -50.0 q 0.0 -50.0 -40.0 -50.0 h -80 h -80 h -80 h -80 q -40.0 0.0 -40.0 50.0 m 0 50.0 v 50.0" stroke-linecap="round" fill="none"/><path stroke="#407ee7" stroke-width="20" d="M 1240.0 1700 m 40.0 50.0 v 50.0" stroke-linecap="round" fill="none"/><path stroke="#407ee7" stroke-width="20" d="M 0 2000 m 40.0 0 v 50.0" stroke-linecap="round" fill="none"/><path stroke="#407ee7" stroke-width="20" d="M 80 2000 m 40.0 0 v 50.0" stroke-linecap="round" fill="none"/><path stroke="#f22c40" stroke-width="20" d="M 560 2000 m 0 50.0 q 40.0 0.0 40.0 50.0 q 0.0 50.0 -40.0 50.0 h -80 m -40.0 0 h -80 M 560 2200 m 40.0 100 q 0.0 -50.0 -40.0 -50.0 h -80 h -80 h -80 q -40.0 0.0 -40.0 50.0 v 100 q 0.0 50.0 40.0 50.0 h 80" stroke-linecap="round" fill="none"/><path stroke="#c38418" stroke-width="20" d="M 720 2200 m 40.0 0 q 0.0 50.0 40.0 50.0 h 80 q 40.0 0.0 40.0 50.0 q 0.0 50.0 -40.0 50.0 h -80 h -80 q -40.0 0.0 -40.0 50.0 q 0.0 50.0 40.0 50.0 h 80" stroke-linecap="round" fill="none"/><path stroke="#df5320" stroke-width="20" d="M 1040 2200 m 40.0 0 q 0.0 50.0 40.0 50.0 h 80 q 40.0 0.0 40.0 50.0 q 0.0 50.0 -40.0 50.0 h -80 h -80 q -40.0 0.0 -40.0 50.0 q 0.0 50.0 40.0 50.0 h 80" stroke-linecap="round" fill="none"/><path stroke="#00ad9c" stroke-width="20" d="M 1280 2200 m 40.0 0 q 0.0 50.0 40.0 50.0 h 80 h 80 q 40.0 0.0 40.0 -50.0 q 0.0 -50.0 -40.0 -50.0 h -80 h -80 h -80 h -80 h -80 h -80 h -80 h -80 h -80 h -80 q -40.0 0.0 -40.0 50.0 m 0 50.0 v 50.0 M 1280 2300 m 40.0 100 q 0.0 -50.0 40.0 -50.0 h 80 h 80 h 80 q 40.0 0.0 40.0 -50.0 v -100 q 0.0 -50.0 40.0 -50.0 h 80 q 40.0 0.0 40.0 50.0 v 100 v 100 q 0.0 50.0 40.0 50.0 h 80 q 40.0 0.0 40.0 -50.0 v -100" stroke-linecap="round" fill="none"/><path stroke="#407ee7" stroke-width="20" d="M 1960.0 2400 m 40.0 50.0 v 50.0" stroke-linecap="round" fill="none"/><path stroke="#407ee7" stroke-width="20" d="M 0 2700 m 40.0 0 v 50.0" stroke-linecap="round" fill="none"/><path stroke="#407ee7" stroke-width="20" d="M 80 2700 m 40.0 0 v 50.0" stroke-linecap="round" fill="none"/><path stroke="#f22c40" stroke-width="20" d="M 480 2900 m 0 50.0 q 40.0 0.0 40.0 50.0 q 0.0 50.0 -40.0 50.0 h -80 q -40.0 0.0 -40.0 -50.0 v -100 q 0.0 -50.0 40.0 -50.0 h 80 h 80 q 40.0 0.0 40.0 -50.0 q 0.0 -50.0 40.0 -50.0 h 80" stroke-linecap="round" fill="none"/><path stroke="#c38418" stroke-width="20" d="M 960 2900 m 0 50.0 q 40.0 0.0 40.0 50.0 q 0.0 50.0 -40.0 50.0 h -80 q -40.0 0.0 -40.0 -50.0 v -100 q 0.0 -50.0 40.0 -50.0 h 80 h 80 q 40.0 0.0 40.0 -50.0 q 0.0 -50.0 40.0 -50.0 h 80" stroke-linecap="round" fill="none"/><path stroke="#df5320" stroke-width="20" d="M 1360 2900 m 0 50.0 q 40.0 0.0 40.0 50.0 v 100 q 0.0 50.0 -40.0 50.0 h -80 h -80 h -80 h -80 h -80 h -80 h -80 h -80 q -40.0 0.0 -40.0 -50.0 v -100 m 0 -50.0 v -50.0 M 1360 3200 m 80 50.0 q -40.0 0.0 -40.0 50.0 v 100 q 0.0 50.0 -40.0 50.0 h -80 q -40.0 0.0 -40.0 -50.0 v -100" stroke-linecap="round" fill="none"/><path stroke="#00ad9c" stroke-width="20" d="M 1040 2900 m 0 50.0 v 50.0 q 0.0 50.0 40.0 50.0 h 80 q 40.0 0.0 40.0 -50.0 v -100 q 0.0 -50.0 40.0 -50.0 h 80 h 80 h 80 q 40.0 0.0 40.0 50.0 v 100 m 0 50.0 v 50.0 M 1520 3000 m 0 50.0 v 50.0 v 100 v 100 v 100 v 100 q 0.0 50.0 -40.0 50.0 h -80 h -80 h -80 h -80 h -80 q -40.0 0.0 -40.0 -50.0 v -100 v -100 q 0.0 -50.0 -40.0 -50.0 h -80 q -40.0 0.0 -40.0 50.0 v 100 v 100 q 0.0 50.0 -40.0 50.0 h -80 q -40.0 0.0 -40.0 -50.0 v -100 v -100 q 0.0 -50.0 -40.0 -50.0 h -80 q -40.0 0.0 -40.0 50.0 v 100 v 100 q 0.0 50.0 -40.0 50.0 h -80 q -40.0 0.0 -40.0 -50.0 v -100 v -100 v -100 v -100" stroke-linecap="round" fill="none"/><path stroke="#407ee7" stroke-width="20" d="M 1560.0 3500 m 40.0 50.0 v 50.0" stroke-linecap="round" fill="none"/><path stroke="#407ee7" stroke-width="20" d="M 0 3800 m 40.0 0 v 50.0" stroke-linecap="round" fill="none"/><path stroke="#f22c40" stroke-width="20" d="M 480 3800 m 40.0 0 q 0.0 50.0 -40.0 50.0 h -80 q -40.0 0.0 -40.0 50.0 q 0.0 50.0 40.0 50.0 h 80 m 40.0 0 h 80 M 480 4000 m 40.0 100 q 0.0 -50.0 -40.0 -50.0 h -80 h -80 h -80 q -40.0 0.0 -40.0 50.0 v 100 q 0.0 50.0 40.0 50.0 h 80" stroke-linecap="round" fill="none"/><path stroke="#c38418" stroke-width="20" d="M 880 3800 m 40.0 0 q 0.0 50.0 -40.0 50.0 h -80 q -40.0 0.0 -40.0 50.0 q 0.0 50.0 40.0 50.0 h 80 m 40.0 0 h 80 M 880 4000 m 40.0 100 q 0.0 -50.0 -40.0 -50.0 h -80 h -80 h -80 q -40.0 0.0 -40.0 50.0 v 100 q 0.0 50.0 40.0 50.0 h 80" stroke-linecap="round" fill="none"/><path stroke="#407ee7" stroke-width="20" d="M 1000.0 4200 m 40.0 50.0 v 50.0" stroke-linecap="round" fill="none"/></svg>